<?xml version="1.0"?>
<!-- Generated by SVGo -->
<svg width="500" height="500"
     xmlns="http://www.w3.org/2000/svg"
     xmlns:xlink="http://www.w3.org/1999/xlink">
<rect x="0" y="0" width="500" height="500" />
<circle cx="419" cy="36" r="1" style="fill:white" />
<circle cx="478" cy="78" r="1" style="fill:white" />
<circle cx="200" cy="129" r="1" style="fill:white" />
<circle cx="429" cy="99" r="0" style="fill:white" />
<circle cx="256" cy="92" r="1" style="fill:white" />
<circle cx="283" cy="75" r="0" style="fill:white" />
<circle cx="239" cy="164" r="1" style="fill:white" />
<circle cx="170" cy="148" r="2" style="fill:white" />
<circle cx="274" cy="300" r="1" style="fill:white" />
<circle cx="98" cy="405" r="1" style="fill:white" />
<circle cx="478" cy="253" r="1" style="fill:white" />
<circle cx="165" cy="13" r="1" style="fill:white" />
<circle cx="10" cy="62" r="1" style="fill:white" />
<circle cx="71" cy="215" r="0" style="fill:white" />
<circle cx="103" cy="439" r="1" style="fill:white" />
<circle cx="183" cy="235" r="0" style="fill:white" />
<circle cx="55" cy="418" r="2" style="fill:white" />
<circle cx="107" cy="388" r="1" style="fill:white" />
<circle cx="388" cy="127" r="2" style="fill:white" />
<circle cx="473" cy="125" r="2" style="fill:white" />
<circle cx="472" cy="311" r="2" style="fill:white" />
<circle cx="456" cy="470" r="2" style="fill:white" />
<circle cx="71" cy="141" r="2" style="fill:white" />
<circle cx="353" cy="429" r="1" style="fill:white" />
<circle cx="416" cy="395" r="2" style="fill:white" />
<circle cx="479" cy="426" r="1" style="fill:white" />
<circle cx="192" cy="292" r="0" style="fill:white" />
<circle cx="344" cy="390" r="2" style="fill:white" />
<circle cx="205" cy="383" r="1" style="fill:white" />
<circle cx="437" cy="27" r="1" style="fill:white" />
<circle cx="107" cy="450" r="1" style="fill:white" />
<circle cx="271" cy="386" r="2" style="fill:white" />
<circle cx="427" cy="34" r="1" style="fill:white" />
<circle cx="198" cy="123" r="1" style="fill:white" />
<circle cx="153" cy="70" r="2" style="fill:white" />
<circle cx="245" cy="291" r="2" style="fill:white" />
<circle cx="342" cy="253" r="1" style="fill:white" />
<circle cx="465" cy="380" r="1" style="fill:white" />
<circle cx="359" cy="283" r="2" style="fill:white" />
<circle cx="192" cy="464" r="1" style="fill:white" />
<circle cx="197" cy="460" r="1" style="fill:white" />
<circle cx="227" cy="385" r="1" style="fill:white" />
<circle cx="259" cy="312" r="0" style="fill:white" />
<circle cx="277" cy="139" r="0" style="fill:white" />
<circle cx="429" cy="46" r="2" style="fill:white" />
<circle cx="431" cy="480" r="1" style="fill:white" />
<circle cx="404" cy="193" r="1" style="fill:white" />
<circle cx="484" cy="66" r="1" style="fill:white" />
<circle cx="426" cy="265" r="0" style="fill:white" />
<circle cx="0" cy="336" r="1" style="fill:white" />
<circle cx="333" cy="481" r="1" style="fill:white" />
<circle cx="434" cy="128" r="0" style="fill:white" />
<circle cx="334" cy="206" r="2" style="fill:white" />
<circle cx="50" cy="98" r="1" style="fill:white" />
<circle cx="221" cy="119" r="0" style="fill:white" />
<circle cx="342" cy="365" r="2" style="fill:white" />
<circle cx="448" cy="123" r="1" style="fill:white" />
<circle cx="17" cy="397" r="0" style="fill:white" />
<circle cx="227" cy="375" r="1" style="fill:white" />
<circle cx="349" cy="21" r="2" style="fill:white" />
<circle cx="16" cy="467" r="1" style="fill:white" />
<circle cx="148" cy="426" r="0" style="fill:white" />
<circle cx="433" cy="74" r="0" style="fill:white" />
<circle cx="47" cy="8" r="2" style="fill:white" />
<circle cx="350" cy="94" r="1" style="fill:white" />
<circle cx="276" cy="279" r="2" style="fill:white" />
<circle cx="121" cy="470" r="2" style="fill:white" />
<circle cx="406" cy="230" r="0" style="fill:white" />
<circle cx="378" cy="176" r="0" style="fill:white" />
<circle cx="83" cy="433" r="2" style="fill:white" />
<circle cx="387" cy="140" r="1" style="fill:white" />
<circle cx="303" cy="302" r="0" style="fill:white" />
<circle cx="484" cy="329" r="2" style="fill:white" />
<circle cx="190" cy="356" r="2" style="fill:white" />
<circle cx="355" cy="390" r="2" style="fill:white" />
<circle cx="436" cy="94" r="2" style="fill:white" />
<circle cx="248" cy="106" r="1" style="fill:white" />
<circle cx="5" cy="2" r="1" style="fill:white" />
<circle cx="227" cy="454" r="1" style="fill:white" />
<circle cx="419" cy="306" r="2" style="fill:white" />
<circle cx="415" cy="246" r="1" style="fill:white" />
<circle cx="476" cy="58" r="0" style="fill:white" />
<circle cx="186" cy="187" r="1" style="fill:white" />
<circle cx="436" cy="34" r="0" style="fill:white" />
<circle cx="414" cy="186" r="2" style="fill:white" />
<circle cx="317" cy="312" r="1" style="fill:white" />
<circle cx="91" cy="462" r="0" style="fill:white" />
<circle cx="246" cy="303" r="1" style="fill:white" />
<circle cx="382" cy="198" r="0" style="fill:white" />
<circle cx="242" cy="394" r="2" style="fill:white" />
<circle cx="43" cy="438" r="2" style="fill:white" />
<circle cx="278" cy="412" r="0" style="fill:white" />
<circle cx="125" cy="4" r="2" style="fill:white" />
<circle cx="7" cy="24" r="2" style="fill:white" />
<circle cx="48" cy="111" r="1" style="fill:white" />
<circle cx="477" cy="14" r="2" style="fill:white" />
<circle cx="292" cy="258" r="1" style="fill:white" />
<circle cx="304" cy="449" r="1" style="fill:white" />
<circle cx="409" cy="396" r="1" style="fill:white" />
<circle cx="169" cy="8" r="1" style="fill:white" />
<circle cx="430" cy="99" r="0" style="fill:white" />
<circle cx="320" cy="122" r="0" style="fill:white" />
<circle cx="58" cy="492" r="0" style="fill:white" />
<circle cx="356" cy="360" r="0" style="fill:white" />
<circle cx="192" cy="242" r="2" style="fill:white" />
<circle cx="266" cy="316" r="1" style="fill:white" />
<circle cx="45" cy="185" r="2" style="fill:white" />
<circle cx="50" cy="49" r="1" style="fill:white" />
<circle cx="416" cy="260" r="1" style="fill:white" />
<circle cx="213" cy="57" r="2" style="fill:white" />
<circle cx="47" cy="329" r="2" style="fill:white" />
<circle cx="392" cy="149" r="2" style="fill:white" />
<circle cx="122" cy="322" r="1" style="fill:white" />
<circle cx="307" cy="363" r="0" style="fill:white" />
<circle cx="295" cy="317" r="1" style="fill:white" />
<circle cx="279" cy="187" r="0" style="fill:white" />
<circle cx="320" cy="353" r="0" style="fill:white" />
<circle cx="208" cy="69" r="1" style="fill:white" />
<circle cx="262" cy="157" r="2" style="fill:white" />
<circle cx="444" cy="134" r="0" style="fill:white" />
<circle cx="354" cy="120" r="1" style="fill:white" />
<circle cx="445" cy="65" r="1" style="fill:white" />
<circle cx="451" cy="367" r="1" style="fill:white" />
<circle cx="401" cy="460" r="0" style="fill:white" />
<circle cx="443" cy="476" r="1" style="fill:white" />
<circle cx="391" cy="324" r="0" style="fill:white" />
<circle cx="268" cy="197" r="1" style="fill:white" />
<circle cx="253" cy="394" r="0" style="fill:white" />
<circle cx="477" cy="428" r="1" style="fill:white" />
<circle cx="49" cy="449" r="1" style="fill:white" />
<circle cx="146" cy="112" r="2" style="fill:white" />
<circle cx="383" cy="191" r="2" style="fill:white" />
<circle cx="298" cy="265" r="2" style="fill:white" />
<circle cx="270" cy="313" r="2" style="fill:white" />
<circle cx="155" cy="170" r="2" style="fill:white" />
<circle cx="489" cy="275" r="1" style="fill:white" />
<circle cx="438" cy="336" r="1" style="fill:white" />
<circle cx="113" cy="430" r="1" style="fill:white" />
<circle cx="415" cy="39" r="1" style="fill:white" />
<circle cx="389" cy="245" r="1" style="fill:white" />
<circle cx="58" cy="312" r="0" style="fill:white" />
<circle cx="295" cy="287" r="2" style="fill:white" />
<circle cx="101" cy="230" r="0" style="fill:white" />
<circle cx="362" cy="97" r="2" style="fill:white" />
<circle cx="236" cy="286" r="2" style="fill:white" />
<circle cx="280" cy="73" r="2" style="fill:white" />
<circle cx="183" cy="13" r="2" style="fill:white" />
<circle cx="371" cy="296" r="0" style="fill:white" />
<circle cx="55" cy="268" r="0" style="fill:white" />
<circle cx="269" cy="369" r="0" style="fill:white" />
<circle cx="128" cy="404" r="2" style="fill:white" />
<circle cx="42" cy="433" r="1" style="fill:white" />
<circle cx="22" cy="249" r="1" style="fill:white" />
<circle cx="441" cy="323" r="2" style="fill:white" />
<circle cx="484" cy="142" r="2" style="fill:white" />
<circle cx="228" cy="38" r="2" style="fill:white" />
<circle cx="326" cy="392" r="2" style="fill:white" />
<circle cx="487" cy="453" r="0" style="fill:white" />
<circle cx="461" cy="32" r="2" style="fill:white" />
<circle cx="415" cy="240" r="1" style="fill:white" />
<circle cx="357" cy="2" r="0" style="fill:white" />
<circle cx="255" cy="445" r="1" style="fill:white" />
<circle cx="211" cy="174" r="0" style="fill:white" />
<circle cx="382" cy="335" r="0" style="fill:white" />
<circle cx="222" cy="363" r="1" style="fill:white" />
<circle cx="417" cy="259" r="0" style="fill:white" />
<circle cx="363" cy="371" r="0" style="fill:white" />
<circle cx="193" cy="319" r="1" style="fill:white" />
<circle cx="453" cy="100" r="1" style="fill:white" />
<circle cx="232" cy="464" r="1" style="fill:white" />
<circle cx="323" cy="58" r="2" style="fill:white" />
<circle cx="113" cy="424" r="0" style="fill:white" />
<circle cx="216" cy="236" r="0" style="fill:white" />
<circle cx="210" cy="53" r="2" style="fill:white" />
<circle cx="426" cy="302" r="1" style="fill:white" />
<circle cx="151" cy="391" r="2" style="fill:white" />
<circle cx="408" cy="16" r="1" style="fill:white" />
<circle cx="261" cy="129" r="2" style="fill:white" />
<circle cx="400" cy="28" r="2" style="fill:white" />
<circle cx="445" cy="113" r="0" style="fill:white" />
<circle cx="420" cy="251" r="0" style="fill:white" />
<circle cx="147" cy="237" r="2" style="fill:white" />
<circle cx="150" cy="456" r="0" style="fill:white" />
<circle cx="484" cy="441" r="1" style="fill:white" />
<circle cx="429" cy="24" r="1" style="fill:white" />
<circle cx="308" cy="8" r="0" style="fill:white" />
<circle cx="207" cy="478" r="2" style="fill:white" />
<circle cx="193" cy="293" r="0" style="fill:white" />
<circle cx="168" cy="183" r="2" style="fill:white" />
<circle cx="475" cy="0" r="2" style="fill:white" />
<circle cx="403" cy="222" r="1" style="fill:white" />
<circle cx="265" cy="269" r="0" style="fill:white" />
<circle cx="355" cy="175" r="1" style="fill:white" />
<circle cx="431" cy="82" r="2" style="fill:white" />
<circle cx="424" cy="88" r="0" style="fill:white" />
<circle cx="254" cy="477" r="2" style="fill:white" />
<circle cx="92" cy="411" r="1" style="fill:white" />
<circle cx="358" cy="398" r="0" style="fill:white" />
<circle cx="158" cy="317" r="1" style="fill:white" />
<circle cx="165" cy="205" r="0" style="fill:white" />
<circle cx="411" cy="161" r="0" style="fill:white" />
<circle cx="238" cy="342" r="1" style="fill:white" />
<circle cx="381" cy="421" r="2" style="fill:white" />
<circle cx="102" cy="152" r="1" style="fill:white" />
<circle cx="383" cy="416" r="2" style="fill:white" />
<circle cx="497" cy="247" r="2" style="fill:white" />
<circle cx="379" cy="295" r="1" style="fill:white" />
<circle cx="313" cy="488" r="2" style="fill:white" />
<circle cx="290" cy="160" r="0" style="fill:white" />
<circle cx="34" cy="328" r="1" style="fill:white" />
<circle cx="330" cy="261" r="1" style="fill:white" />
<circle cx="437" cy="71" r="1" style="fill:white" />
<circle cx="55" cy="43" r="1" style="fill:white" />
<circle cx="88" cy="385" r="0" style="fill:white" />
<circle cx="328" cy="322" r="1" style="fill:white" />
<circle cx="237" cy="400" r="2" style="fill:white" />
<circle cx="76" cy="428" r="1" style="fill:white" />
<circle cx="117" cy="381" r="1" style="fill:white" />
<circle cx="185" cy="449" r="1" style="fill:white" />
<circle cx="385" cy="35" r="0" style="fill:white" />
<circle cx="289" cy="190" r="2" style="fill:white" />
<circle cx="239" cy="438" r="2" style="fill:white" />
<circle cx="307" cy="15" r="1" style="fill:white" />
<circle cx="321" cy="74" r="2" style="fill:white" />
<circle cx="309" cy="385" r="0" style="fill:white" />
<circle cx="349" cy="24" r="1" style="fill:white" />
<circle cx="295" cy="43" r="1" style="fill:white" />
<circle cx="19" cy="167" r="2" style="fill:white" />
<circle cx="172" cy="123" r="0" style="fill:white" />
<circle cx="58" cy="236" r="2" style="fill:white" />
<circle cx="225" cy="302" r="0" style="fill:white" />
<circle cx="317" cy="102" r="2" style="fill:white" />
<circle cx="371" cy="246" r="0" style="fill:white" />
<circle cx="249" cy="1" r="0" style="fill:white" />
<circle cx="167" cy="25" r="1" style="fill:white" />
<circle cx="25" cy="485" r="0" style="fill:white" />
<circle cx="492" cy="226" r="0" style="fill:white" />
<circle cx="474" cy="258" r="1" style="fill:white" />
<circle cx="297" cy="139" r="0" style="fill:white" />
<circle cx="208" cy="234" r="1" style="fill:white" />
<circle cx="406" cy="81" r="2" style="fill:white" />
<circle cx="443" cy="96" r="0" style="fill:white" />
<circle cx="435" cy="483" r="0" style="fill:white" />
<circle cx="91" cy="477" r="1" style="fill:white" />
<circle cx="458" cy="82" r="2" style="fill:white" />
<circle cx="101" cy="271" r="0" style="fill:white" />
<circle cx="6" cy="467" r="0" style="fill:white" />
<circle cx="395" cy="324" r="1" style="fill:white" />
<circle cx="9" cy="210" r="1" style="fill:white" />
<circle cx="219" cy="368" r="0" style="fill:white" />
<circle cx="250" cy="500" r="250" style="fill:rgb(77, 117, 232)" />
<text x="250" y="400" style="font-size:48pt;fill:white;text-anchor:middle" >hello, world</text>
</svg>
